<svg width="125" height="64" viewBox="0 0 125 64" fill="none" xmlns="http://www.w3.org/2000/svg">
<g filter="url(#filter0_d_512_9453)">
<path d="M21.2543 0.928786L23.4122 16.9513L16.7085 35.729L7.54479 39.9493L21.2543 0.928786Z" fill="#FF6F61"/>
<path d="M21.2784 0.816585L19.754 19.2424L29.3325 48.5128L37.0638 48.5128L21.2784 0.816585Z" fill="#FF6F61"/>
<path d="M22.8291 34.3643L23.6283 36.7399L5.82989 44.9399L6.96765 41.7405L22.8291 34.3643Z" fill="#FF6F61"/>
<path d="M24.008 38.008L24.7696 40.4011L7.25478 48.5062L4.56971 48.5062L5.22728 46.6679L24.008 38.008Z" fill="#FF6F61"/>
<path d="M40.376 55.744L53.864 25.696H58.76L45.656 55.744H40.376ZM45.608 46.144L35.72 25.696H41.768L49.736 43.408L45.608 46.144ZM65.0848 16.768H70.5088V25.696H75.7888V29.92H70.5088V46H65.0848V29.92H61.6288V25.696H65.0848V16.768ZM79.391 35.632C79.391 33.584 79.871 31.744 80.831 30.112C81.791 28.448 83.135 27.152 84.863 26.224C86.623 25.264 88.607 24.784 90.815 24.784C93.087 24.784 95.055 25.264 96.719 26.224C98.415 27.152 99.727 28.448 100.655 30.112C101.583 31.744 102.047 33.584 102.047 35.632C102.047 37.68 101.583 39.536 100.655 41.2C99.727 42.832 98.415 44.128 96.719 45.088C95.055 46.048 93.071 46.528 90.767 46.528C88.591 46.528 86.639 46.096 84.911 45.232C83.183 44.336 81.823 43.072 80.831 41.44C79.871 39.808 79.391 37.872 79.391 35.632ZM84.815 35.68C84.815 36.864 85.071 37.952 85.583 38.944C86.095 39.904 86.799 40.672 87.695 41.248C88.591 41.824 89.583 42.112 90.671 42.112C91.855 42.112 92.879 41.824 93.743 41.248C94.639 40.672 95.327 39.904 95.807 38.944C96.319 37.952 96.575 36.864 96.575 35.68C96.575 34.464 96.319 33.376 95.807 32.416C95.327 31.424 94.639 30.64 93.743 30.064C92.879 29.488 91.855 29.2 90.671 29.2C89.551 29.2 88.543 29.504 87.647 30.112C86.783 30.688 86.095 31.456 85.583 32.416C85.071 33.376 84.815 34.464 84.815 35.68ZM112.544 25.696L113.024 31.456L112.832 30.64C113.408 29.424 114.192 28.384 115.184 27.52C116.208 26.624 117.248 25.952 118.304 25.504C119.36 25.024 120.224 24.784 120.896 24.784L120.656 30.16C119.12 30.032 117.776 30.32 116.624 31.024C115.504 31.696 114.624 32.592 113.984 33.712C113.376 34.832 113.072 36.016 113.072 37.264V46H107.696V25.696H112.544Z" fill="white"/>
</g>
<defs>
<filter id="filter0_d_512_9453" x="0.569824" y="0.816406" width="124.326" height="62.9277" filterUnits="userSpaceOnUse" color-interpolation-filters="sRGB">
<feFlood flood-opacity="0" result="BackgroundImageFix"/>
<feColorMatrix in="SourceAlpha" type="matrix" values="0 0 0 0 0 0 0 0 0 0 0 0 0 0 0 0 0 0 127 0" result="hardAlpha"/>
<feOffset dy="4"/>
<feGaussianBlur stdDeviation="2"/>
<feComposite in2="hardAlpha" operator="out"/>
<feColorMatrix type="matrix" values="0 0 0 0 0 0 0 0 0 0 0 0 0 0 0 0 0 0 0.25 0"/>
<feBlend mode="normal" in2="BackgroundImageFix" result="effect1_dropShadow_512_9453"/>
<feBlend mode="normal" in="SourceGraphic" in2="effect1_dropShadow_512_9453" result="shape"/>
</filter>
</defs>
</svg>
